<svg width="40" height="40" viewBox="0 0 40 40" fill="none" xmlns="http://www.w3.org/2000/svg">
<g clip-path="url(#clip0_715_804)">
<path d="M14.375 0C16.7891 0 18.75 1.95859 18.75 4.375V35.625C18.75 38.0391 16.7891 40 14.375 40C12.1172 40 10.2578 38.2891 10.0234 36.0859C9.61719 36.1953 9.1875 36.25 8.75 36.25C5.98828 36.25 3.75 34.0078 3.75 31.25C3.75 30.6719 3.84922 30.1094 4.03047 29.5938C1.67422 28.7031 0 26.4219 0 23.75C0 21.2578 1.46172 19.1016 3.57578 18.1016C2.90234 17.25 2.5 16.1016 2.5 15C2.5 12.6016 4.18672 10.6016 6.43828 10.1094C6.31563 9.67969 6.25 9.21875 6.25 8.75C6.25 6.41094 7.85938 4.44688 10.0234 3.90078C10.2578 1.70781 12.1172 0 14.375 0ZM29.9766 3.90078C32.1406 4.44688 33.75 6.41094 33.75 8.75C33.75 9.21875 33.6875 9.67969 33.5625 10.1094C35.8125 10.6016 37.5 12.6016 37.5 15C37.5 16.1016 37.1016 17.25 36.4219 18.1016C38.5391 19.1016 40 21.2578 40 23.75C40 26.4219 38.3281 28.7031 35.9688 29.5938C36.1484 30.1094 36.25 30.6719 36.25 31.25C36.25 34.0078 34.0078 36.25 31.25 36.25C30.8125 36.25 30.3828 36.1953 29.9766 36.0859C29.7422 38.2891 27.8828 40 25.625 40C23.2109 40 21.25 38.0391 21.25 35.625V4.375C21.25 1.95859 23.2109 0 25.625 0C27.8828 0 29.7422 1.70781 29.9766 3.90078Z" fill="#FFBB1B"/>
</g>
<defs>
<clipPath id="clip0_715_804">
<rect width="40" height="40" fill="white"/>
</clipPath>
</defs>
</svg>
