<svg width="30" height="30" viewBox="0 0 30 30" fill="none" xmlns="http://www.w3.org/2000/svg">
<path d="M29.3823 21.7103L26.002 18.3137C25.6063 17.9182 25.0697 17.6961 24.5102 17.6961C23.9507 17.6961 23.4141 17.9182 23.0184 18.3137L19.4848 21.8303L8.17063 10.5173L11.6909 7.00077C12.0854 6.60525 12.307 6.06944 12.307 5.51082C12.307 4.95221 12.0854 4.4164 11.6909 4.02087L8.29064 0.617655C7.89493 0.222168 7.35835 0 6.79886 0C6.23937 0 5.70278 0.222168 5.30708 0.617655L0.616714 5.3075C0.421099 5.50319 0.265953 5.73549 0.160137 5.99114C0.0543198 6.24678 -9.48926e-05 6.52077 1.24221e-07 6.79745V7.38076C0.0566712 9.09737 0.830064 11.2906 2.25017 13.7405C3.96313 16.6071 6.03565 19.2428 8.41732 21.5836C10.7496 23.9554 13.3742 26.0208 16.2279 27.7301C18.6681 29.15 20.8616 29.9267 22.5817 30H23.2051C23.7608 30.0006 24.2941 29.7813 24.6886 29.39L29.3856 24.6935C29.7791 24.2981 30 23.763 30 23.2052C30 22.6474 29.7791 22.1123 29.3856 21.7169L29.3823 21.7103ZM28.7155 24.0435L24.0285 28.7234C23.9074 28.8431 23.7619 28.9352 23.6018 28.9934C23.4736 29.0399 23.3382 29.0636 23.2018 29.0634H22.6151C21.0516 29 19.0015 28.2567 16.7013 26.9201C13.9181 25.2512 11.3584 23.2351 9.08403 20.9203C6.76661 18.6372 4.75016 16.0676 3.08357 13.2739C1.75014 10.9606 1.01008 8.91404 0.960074 7.35076V6.79745C0.950615 6.66391 0.964146 6.52975 1.00008 6.40079C1.05908 6.23941 1.15233 6.09272 1.27343 5.97081L5.96713 1.28097C6.07622 1.17091 6.20604 1.08356 6.34908 1.02395C6.49212 0.964332 6.64556 0.933639 6.80052 0.933639C6.95549 0.933639 7.10893 0.964332 7.25197 1.02395C7.39501 1.08356 7.52483 1.17091 7.63392 1.28097L11.0242 4.66752C11.1342 4.7766 11.2216 4.9064 11.2812 5.04943C11.3409 5.19245 11.3716 5.34587 11.3716 5.50082C11.3716 5.65578 11.3409 5.80919 11.2812 5.95222C11.2216 6.09525 11.1342 6.22505 11.0242 6.33413L7.50725 9.85401L6.84053 10.5207L7.50725 11.1873L18.8215 22.4936L19.4882 23.1602L20.1549 22.4936L23.6685 18.977C23.7774 18.8666 23.9071 18.7789 24.0502 18.719C24.1932 18.6591 24.3468 18.6283 24.5019 18.6283C24.657 18.6283 24.8105 18.6591 24.9536 18.719C25.0967 18.7789 25.2264 18.8666 25.3353 18.977L28.7222 22.3736C28.8323 22.4827 28.9196 22.6125 28.9793 22.7555C29.0389 22.8985 29.0696 23.0519 29.0696 23.2069C29.0696 23.3618 29.0389 23.5153 28.9793 23.6583C28.9196 23.8013 28.8323 23.9311 28.7222 24.0402L28.7155 24.0435Z" fill="white"/>
</svg>
