<svg width="30" height="21" viewBox="0 0 30 21" fill="none" xmlns="http://www.w3.org/2000/svg">
<path d="M28.125 0H1.875C1.37772 0 0.900805 0.19522 0.549175 0.542714C0.197544 0.890208 0 1.36151 0 1.85294L0 19.1471C0 19.6385 0.197544 20.1098 0.549175 20.4573C0.900805 20.8048 1.37772 21 1.875 21H28.125C28.6223 21 29.0992 20.8048 29.4508 20.4573C29.8025 20.1098 30 19.6385 30 19.1471V1.85294C30 1.36151 29.8025 0.890208 29.4508 0.542714C29.0992 0.19522 28.6223 0 28.125 0ZM27.725 1.23529L15 10.9571L2.275 1.23529H27.725ZM1.25 18.8938V2.01353L10.8812 9.36971L1.25 18.8938ZM2.13125 19.7647L11.875 10.1356L14.6125 12.2294C14.7218 12.3126 14.8558 12.3576 14.9937 12.3576C15.1317 12.3576 15.2657 12.3126 15.375 12.2294L18.125 10.1356L27.8688 19.7647H2.13125ZM28.75 18.8938L19.1188 9.36971L28.75 2.01353V18.8938Z" fill="white"/>
</svg>
