<svg width="32" height="32" viewBox="0 0 32 32" fill="none" xmlns="http://www.w3.org/2000/svg">
<path d="M16 22.5217C19.6019 22.5217 22.5217 19.6019 22.5217 16C22.5217 12.3982 19.6019 9.47827 16 9.47827C12.3982 9.47827 9.47827 12.3982 9.47827 16C9.47827 19.6019 12.3982 22.5217 16 22.5217Z" stroke="white" stroke-linecap="round" stroke-linejoin="round"/>
<path d="M23.1739 1H8.82609C4.50386 1 1 4.50386 1 8.82609V23.1739C1 27.4961 4.50386 31 8.82609 31H23.1739C27.4961 31 31 27.4961 31 23.1739V8.82609C31 4.50386 27.4961 1 23.1739 1Z" stroke="white" stroke-linecap="round" stroke-linejoin="round"/>
<path d="M24.4783 9.15223C25.3788 9.15223 26.1088 8.42226 26.1088 7.52179C26.1088 6.62133 25.3788 5.89136 24.4783 5.89136C23.5779 5.89136 22.8479 6.62133 22.8479 7.52179C22.8479 8.42226 23.5779 9.15223 24.4783 9.15223Z" fill="white"/>
</svg>
