<svg width="30" height="30" viewBox="0 0 30 30" fill="none" xmlns="http://www.w3.org/2000/svg">
<path d="M0.380429 9.75768H6.80979V30H0.380429V9.75768ZM3.63814 0C1.43764 0 0 1.51142 0 3.49521C0 5.43819 1.39557 6.99355 3.554 6.99355H3.595C5.83757 6.99355 7.23414 5.43812 7.23414 3.49521C7.19207 1.51142 5.83764 0 3.63814 0ZM22.5956 9.28217C19.1829 9.28217 17.6539 11.2461 16.801 12.6234V9.75768H10.3697C10.4549 11.6566 10.3697 30 10.3697 30H16.801V18.6953C16.801 18.0898 16.8431 17.4866 17.0123 17.0528C17.4779 15.8442 18.5361 14.5925 20.311 14.5925C22.6397 14.5925 23.5697 16.4496 23.5697 19.1696V29.9999H30V18.3926C30 12.1751 26.8284 9.28217 22.5956 9.28217Z" fill="white"/>
</svg>
