<svg width="334" height="278" viewBox="0 0 334 278" fill="none" xmlns="http://www.w3.org/2000/svg">
<rect opacity="0.6" x="118" width="216" height="18" rx="5" fill="#00A3FF"/>
<rect opacity="0.6" x="88" y="111" width="120" height="18" rx="5" fill="#A450FD"/>
<rect opacity="0.6" x="24" y="74" width="186" height="18" rx="5" fill="#00A3FF"/>
<rect opacity="0.6" x="24" y="185" width="186" height="18" rx="5" fill="#00A3FF"/>
<rect opacity="0.6" x="19" y="222" width="186" height="18" rx="5" fill="#A450FD"/>
<rect opacity="0.6" x="88" y="37" width="150" height="18" rx="5" fill="#00A3FF"/>
<rect opacity="0.6" x="117" y="259" width="100" height="18" rx="5" fill="#00A3FF"/>
<rect opacity="0.6" x="88" y="148" width="150" height="18" rx="5" fill="#00A3FF"/>
<rect x="59" width="50" height="18" rx="5" fill="#FFBB1B"/>
<rect opacity="0.6" x="217" y="111" width="50" height="18" rx="5" fill="#00A3FF"/>
<rect x="247" y="37" width="68" height="18" rx="5" fill="#FFBB1B"/>
<rect x="255" y="259" width="43" height="18" rx="5" fill="#FFBB1B"/>
<rect x="247" y="148" width="68" height="18" rx="5" fill="#FFBB1B"/>
<rect x="219" y="74" width="50" height="18" rx="5" fill="#FFBB1B"/>
<rect x="219" y="185" width="50" height="18" rx="5" fill="#FFBB1B"/>
<rect opacity="0.6" x="214" y="222" width="50" height="18" rx="5" fill="#00A3FF"/>
<circle opacity="0.6" cx="69" cy="46" r="10" fill="#A450FD"/>
<circle opacity="0.6" cx="40" cy="46" r="10" fill="#A450FD"/>
<circle opacity="0.6" cx="69" cy="268" r="10" fill="#A450FD"/>
<circle opacity="0.6" cx="98" cy="268" r="10" fill="#A450FD"/>
<circle opacity="0.6" cx="236" cy="268" r="10" fill="#A450FD"/>
<circle opacity="0.6" cx="69" cy="157" r="10" fill="#A450FD"/>
<circle opacity="0.6" cx="288" cy="83" r="10" fill="#A450FD"/>
<circle cx="69" cy="120" r="10" fill="#FFBB1B"/>
<rect opacity="0.6" x="18" width="32" height="18" rx="5" fill="#00A3FF"/>
<circle cx="40" cy="120" r="10" fill="#FFBB1B"/>
<rect opacity="0.6" y="148" width="50" height="18" rx="5" fill="#00A3FF"/>
<rect x="7" y="259" width="43" height="18" rx="5" fill="#FFBB1B"/>
</svg>
