<svg width="70" height="70" viewBox="0 0 70 70" fill="none" xmlns="http://www.w3.org/2000/svg">
<g clip-path="url(#clip0_715_687)">
<path d="M23.3334 70.0001C29.7734 70.0001 35 64.7734 35 58.3334V46.6667H23.3334C16.8934 46.6667 11.6667 51.8934 11.6667 58.3334C11.6667 64.7734 16.8934 70.0001 23.3334 70.0001Z" fill="#0ACF83"/>
<path d="M11.6667 34.9999C11.6667 28.5599 16.8934 23.3333 23.3334 23.3333H35V46.6666H23.3334C16.8934 46.6666 11.6667 41.4399 11.6667 34.9999Z" fill="#A259FF"/>
<path d="M11.6667 11.6667C11.6667 5.22667 16.8934 0 23.3334 0H35V23.3333H23.3334C16.8934 23.3333 11.6667 18.1067 11.6667 11.6667Z" fill="#F24E1E"/>
<path d="M35 0H46.6667C53.1067 0 58.3333 5.22667 58.3333 11.6667C58.3333 18.1067 53.1067 23.3333 46.6667 23.3333H35V0Z" fill="#FF7262"/>
<path d="M58.3333 34.9999C58.3333 41.4399 53.1067 46.6666 46.6667 46.6666C40.2267 46.6666 35 41.4399 35 34.9999C35 28.5599 40.2267 23.3333 46.6667 23.3333C53.1067 23.3333 58.3333 28.5599 58.3333 34.9999Z" fill="#1ABCFE"/>
</g>
<defs>
<clipPath id="clip0_715_687">
<rect width="70" height="70" fill="white"/>
</clipPath>
</defs>
</svg>
