<svg width="550" height="536" viewBox="0 0 550 536" fill="none" xmlns="http://www.w3.org/2000/svg">
<g clip-path="url(#clip0_134_126)">
<path opacity="0.8" d="M376.312 53.336C318.104 15.9552 236.306 23.5095 184.848 78.9946C156.713 109.342 145.286 151.086 116.081 180.782C83.2017 214.256 43.9064 246.752 29.0036 292.339C13.1652 340.79 27.0656 396.34 62.4848 433.396C105.589 478.461 168.943 464.915 228.821 464.199C474.016 461.203 656.258 301.716 424.362 105.109C404.982 88.5677 395.559 65.6443 376.312 53.336Z" fill="#FFBB1B"/>
<path d="M486.179 79.1899H72.5091C64.2224 79.1899 57.4727 85.7023 57.4727 93.7776V371.398H501.215V93.7776C501.215 85.7023 494.465 79.1899 486.179 79.1899Z" fill="#292929"/>
<path d="M485.644 85.3115H73.0436C67.8978 85.3115 63.7544 89.3492 63.7544 94.3637V367.295H494.933V94.3637C494.933 89.3492 490.79 85.3115 485.644 85.3115Z" fill="#0E5F8C"/>
<path d="M79.2588 105.5H479.429V357.592H79.2588V105.5Z" fill="#292929"/>
<path d="M281.616 96.643C281.616 97.8803 280.614 98.8572 279.344 98.8572C278.074 98.8572 277.072 97.8803 277.072 96.643C277.072 95.4056 278.074 94.4288 279.344 94.4288C280.614 94.4939 281.616 95.4708 281.616 96.643Z" fill="#F6F6F6"/>
<path d="M129.447 119.436H169.544V126.339H129.447V119.436Z" fill="#FFBB1B"/>
<path d="M93.2261 119.436H109.733V126.339H93.2261V119.436ZM93.2261 132.07H109.733V138.973H93.2261V132.07ZM93.2261 147.048H109.733V153.952H93.2261V147.048ZM93.2261 161.962H109.733V168.865H93.2261V161.962ZM93.2261 176.94H109.733V183.843H93.2261V176.94ZM93.2261 191.853H109.733V198.756H93.2261V191.853ZM177.831 119.436H312.357V126.339H177.831V119.436Z" fill="#25A9D6"/>
<path d="M143.615 132.07H183.712V138.973H143.615V132.07Z" fill="#FFBB1B"/>
<path d="M191.999 132.07H326.525V138.973H191.999V132.07Z" fill="#25A9D6"/>
<path d="M167.272 147.048H207.369V153.952H167.272V147.048Z" fill="#FFBB1B"/>
<path d="M215.656 147.048H350.182V153.952H215.656V147.048Z" fill="#25A9D6"/>
<path d="M190.863 161.962H230.96V168.865H190.863V161.962Z" fill="#FFBB1B"/>
<path d="M239.247 161.962H373.773V168.865H239.247V161.962Z" fill="#25A9D6"/>
<path d="M167.272 176.94H207.369V183.843H167.272V176.94Z" fill="#FFBB1B"/>
<path d="M215.656 176.94H421.021V183.843H215.656V176.94Z" fill="#25A9D6"/>
<path d="M143.615 191.853H183.712V198.756H143.615V191.853Z" fill="#FFBB1B"/>
<path d="M191.999 191.853H279.344V198.756H191.999V191.853Z" fill="#25A9D6"/>
<path opacity="0.4" d="M129.447 211.455H169.544V218.358H129.447V211.455Z" fill="#FFBB1B"/>
<path opacity="0.4" d="M93.2261 211.455H109.733V218.358H93.2261V211.455ZM93.2261 224.089H109.733V230.992H93.2261V224.089ZM93.2261 239.068H109.733V245.971H93.2261V239.068ZM93.2261 253.981H109.733V260.884H93.2261V253.981ZM93.2261 268.959H109.733V275.862H93.2261V268.959ZM93.2261 283.873H109.733V290.776H93.2261V283.873ZM177.831 211.455H312.357V218.358H177.831V211.455Z" fill="#25A9D6"/>
<path opacity="0.4" d="M143.615 224.089H183.712V230.992H143.615V224.089Z" fill="#FFBB1B"/>
<path opacity="0.4" d="M191.999 224.089H326.525V230.992H191.999V224.089Z" fill="#25A9D6"/>
<path opacity="0.4" d="M167.272 239.068H207.369V245.971H167.272V239.068Z" fill="#FFBB1B"/>
<path opacity="0.4" d="M215.656 239.068H350.182V245.971H215.656V239.068Z" fill="#25A9D6"/>
<path opacity="0.4" d="M129.447 303.41H169.544V310.313H129.447V303.41Z" fill="#FFBB1B"/>
<path opacity="0.4" d="M93.2261 303.41H109.733V310.313H93.2261V303.41ZM93.2261 316.109H109.733V323.012H93.2261V316.109ZM93.2261 331.022H109.733V337.925H93.2261V331.022ZM177.831 303.41H312.357V310.313H177.831V303.41Z" fill="#25A9D6"/>
<path opacity="0.4" d="M143.615 316.109H183.712V323.012H143.615V316.109Z" fill="#FFBB1B"/>
<path opacity="0.4" d="M191.999 316.109H326.525V323.012H191.999V316.109Z" fill="#25A9D6"/>
<path opacity="0.4" d="M167.272 331.022H207.369V337.925H167.272V331.022Z" fill="#FFBB1B"/>
<path opacity="0.4" d="M215.656 331.022H350.182V337.925H215.656V331.022Z" fill="#25A9D6"/>
<path opacity="0.4" d="M190.863 253.981H230.96V260.884H190.863V253.981Z" fill="#FFBB1B"/>
<path opacity="0.4" d="M239.247 253.981H444.611V260.884H239.247V253.981Z" fill="#25A9D6"/>
<path opacity="0.4" d="M167.272 268.959H207.369V275.862H167.272V268.959Z" fill="#FFBB1B"/>
<path opacity="0.4" d="M215.656 268.959H350.182V275.862H215.656V268.959Z" fill="#25A9D6"/>
<path opacity="0.4" d="M143.615 283.873H183.712V290.776H143.615V283.873Z" fill="#FFBB1B"/>
<path opacity="0.4" d="M191.999 283.873H326.525V290.776H191.999V283.873Z" fill="#25A9D6"/>
<path d="M530.686 366.449H28.0011C25.1275 366.449 22.7217 368.728 22.7217 371.594V378.236C22.7217 381.037 25.0607 383.381 28.0011 383.381H530.753C533.627 383.381 536.033 381.102 536.033 378.236V371.594C535.966 368.728 533.627 366.449 530.686 366.449Z" fill="#D3D3D3"/>
<path d="M322.448 373.808H236.239C235.103 373.808 234.167 374.72 234.167 375.827C234.167 376.934 235.103 377.845 236.239 377.845H322.515C323.651 377.845 324.587 376.934 324.587 375.827C324.52 374.72 323.584 373.808 322.448 373.808Z" fill="#F7F7F7"/>
<path d="M393.354 439.582L393.287 450.067C393.287 450.067 394.624 456.775 395.76 463.939C396.829 471.102 397.698 478.722 396.562 480.48C394.356 483.997 390.012 480.48 389.277 476.963C388.542 473.447 387.473 451.5 387.473 451.5L386.738 437.368L393.354 439.582ZM404.314 438.15L402.643 447.593C402.643 447.593 399.368 473.381 401.173 477.289C402.977 481.196 408.791 479.438 408.457 474.098C408.123 468.823 409.526 450.067 409.526 450.067L412.801 438.736L404.314 438.15Z" fill="white"/>
<path d="M399.836 323.207L399.034 334.799L429.775 349.256C435.322 352.187 437.995 358.504 436.191 364.365L414.939 441.406L404.38 438.15L413.67 367.296C414.338 362.932 411.264 358.895 406.786 358.178L395.826 356.485L384.198 344.893L397.697 356.68C400.972 359.546 402.576 363.779 401.974 368.012L393.354 439.582L383.797 441.927L379.52 371.529C379.186 367.035 376.112 363.258 371.768 361.89L352.855 356.029C349.848 354.271 347.977 351.08 347.843 347.628L348.645 322.816L399.836 323.207Z" fill="#FBBA59"/>
<path d="M346.641 349.191L351.72 252.939C351.72 252.939 372.704 251.702 378.986 251.702C382.394 251.702 388.208 253.265 392.819 254.697C397.163 256.065 400.705 255.935 402.844 259.842L437.26 324.184L416.076 326.138L408.992 318.323L412.601 313.048L399.703 283.482L402.242 337.209L346.641 349.191Z" fill="black"/>
<path opacity="0.08" d="M400.17 271.76L423.025 311.941L415.942 320.081C415.942 320.081 413.068 320.667 410.328 319.755L409.058 318.323L412.667 313.048L399.769 283.482L400.17 271.76Z" fill="black"/>
<path d="M379.854 280.812C372.904 280.812 360.207 263.163 360.207 256.391C360.207 255.023 360.474 253.72 360.875 252.483C367.357 252.157 375.443 251.767 378.985 251.767C380.522 251.767 382.527 252.092 384.733 252.548C385.134 253.786 385.401 255.023 385.401 256.391C385.334 263.163 386.804 280.812 379.854 280.812Z" fill="white"/>
<path opacity="0.08" d="M349.18 269.611L346.641 349.777L380.59 341.832L349.18 269.611Z" fill="black"/>
<path d="M381.057 241.868C380.456 243.04 376.312 258.8 376.312 258.8C376.312 258.8 374.842 261.405 371.3 261.079C367.758 260.819 366.288 255.935 366.288 255.935L372.503 236.137L381.057 241.868Z" fill="#B86F52"/>
<path d="M359.271 232.165C359.271 243.04 371.1 255.088 382.26 255.088C393.42 255.088 399.636 243.04 399.636 232.165C399.636 221.289 390.614 212.497 379.453 212.497C368.293 212.432 359.271 221.289 359.271 232.165Z" fill="#FFCFBC"/>
<path d="M383.569 255.595C395.954 253.627 404.358 242.248 402.339 230.179C400.32 218.109 388.643 209.92 376.257 211.888C363.872 213.856 355.468 225.235 357.487 237.304C359.507 249.373 371.184 257.562 383.569 255.595Z" fill="#B86F52"/>
<path d="M375.644 339.944C376.513 339.683 383.998 336.101 389.277 336.101C394.557 336.101 401.039 341.572 401.039 341.572C401.039 341.572 401.908 344.437 398.366 343.851C394.824 343.265 398.834 346 398.834 346C398.834 346 398.633 346.13 394.49 346.717C390.347 347.303 374.308 346.456 374.308 346.456L375.644 339.944Z" fill="#B86F52"/>
<path d="M351.719 253.004L348.846 316.304L375.577 339.879L374.307 346.521L336.683 326.919C333.074 325.03 331.002 321.123 331.537 317.151L338.42 268.699C338.955 262.642 342.764 257.302 348.311 254.632L351.719 253.004ZM372.904 351.926H440.936V347.042H372.904C371.501 347.042 370.431 348.149 370.431 349.452C370.365 350.819 371.501 351.926 372.904 351.926Z" fill="black"/>
<path d="M391.549 351.926H457.175C460.049 351.926 462.588 350.038 463.39 347.303L474.951 304.777C476.021 300.805 472.947 296.962 468.736 296.962H411.464C408.591 296.962 406.051 298.851 405.249 301.586L391.549 351.926Z" fill="#0E5F8C"/>
<path d="M430.176 328.222C429.441 331.022 431.246 333.236 434.186 333.236C437.127 333.236 440.067 330.957 440.802 328.222C441.537 325.421 439.733 323.207 436.792 323.207C433.852 323.142 430.911 325.421 430.176 328.222Z" fill="white"/>
<path d="M379.921 211.586C391.616 211.586 401.172 220.182 402.509 231.188C398.566 234.053 393.42 235.291 388.542 234.509C382.795 233.532 377.649 229.69 375.243 224.545C375.443 227.02 375.577 229.495 375.176 231.904C374.775 234.314 373.706 236.723 371.701 238.286C371.567 236.593 371.367 234.77 370.498 233.272C369.562 231.774 367.624 230.732 366.021 231.383C364.818 231.839 364.082 233.011 363.882 234.249C363.682 235.486 364.016 236.723 364.483 237.895C365.219 239.719 366.288 241.412 367.624 242.78C364.951 243.17 362.078 243.496 359.404 243.236C358.001 240.305 357.132 237.114 357.132 233.662C357.132 221.484 367.357 211.586 379.921 211.586Z" fill="black"/>
<path d="M360.34 237.375C360.34 241.087 363.414 244.082 367.224 244.082C371.033 244.082 374.107 241.087 374.107 237.375C374.107 233.662 371.033 230.667 367.224 230.667C363.481 230.667 360.34 233.662 360.34 237.375ZM404.314 438.15L403.111 445.248L410.328 447.462L412.333 440.494L404.314 438.15ZM393.287 447.462L387.272 448.569L386.938 441.145L393.354 439.582L393.287 447.462Z" fill="#B86F52"/>
<path d="M367.223 221.81C372.833 221.81 377.381 217.378 377.381 211.911C377.381 206.444 372.833 202.013 367.223 202.013C361.613 202.013 357.065 206.444 357.065 211.911C357.065 217.378 361.613 221.81 367.223 221.81Z" fill="black"/>
</g>
<defs>
<clipPath id="clip0_134_126">
<rect width="550" height="535.965" fill="white"/>
</clipPath>
</defs>
</svg>
