<svg width="33" height="32" viewBox="0 0 33 32" fill="none" xmlns="http://www.w3.org/2000/svg">
<path d="M30.5016 22.4417L27.2027 19.1809C26.8165 18.8012 26.2928 18.5879 25.7468 18.5879C25.2008 18.5879 24.6771 18.8012 24.291 19.1809L20.8424 22.5569L9.80061 11.6961L13.2361 8.32009C13.6211 7.94037 13.8374 7.42598 13.8374 6.88969C13.8374 6.35341 13.6211 5.83901 13.2361 5.45929L9.91773 2.19209C9.53155 1.81241 9.00788 1.59912 8.46186 1.59912C7.91584 1.59912 7.39218 1.81241 7.006 2.19209L2.42856 6.69449C2.23765 6.88236 2.08624 7.10537 1.98297 7.3508C1.8797 7.59624 1.8266 7.85927 1.82669 8.12489V8.68489C1.882 10.3329 2.63677 12.4385 4.02269 14.7905C5.6944 17.5424 7.71703 20.0728 10.0414 22.3201C12.3175 24.597 14.8789 26.5799 17.6639 28.2209C20.0454 29.5841 22.186 30.3297 23.8648 30.4001H24.4731C25.0154 30.4006 25.5359 30.1901 25.9209 29.8145L30.5048 25.3057C30.8888 24.9261 31.1044 24.4124 31.1044 23.8769C31.1044 23.3414 30.8888 22.8277 30.5048 22.4481L30.5016 22.4417ZM29.8509 24.6817L25.2767 29.1745C25.1585 29.2894 25.0165 29.3779 24.8603 29.4337C24.7352 29.4784 24.603 29.5011 24.4699 29.5009H23.8973C22.3715 29.4401 20.3707 28.7265 18.1259 27.4433C15.4097 25.8411 12.9117 23.9055 10.692 21.6833C8.43039 19.4914 6.46249 17.0246 4.83602 14.3425C3.53469 12.1217 2.81245 10.1569 2.76365 8.65609V8.12489C2.75442 7.9967 2.76762 7.86789 2.80269 7.74409C2.86027 7.58916 2.95128 7.44833 3.06946 7.33129L7.65016 2.82889C7.75662 2.72324 7.88331 2.63937 8.02291 2.58214C8.16251 2.52491 8.31225 2.49544 8.46349 2.49544C8.61473 2.49544 8.76447 2.52491 8.90407 2.58214C9.04367 2.63937 9.17036 2.72324 9.27682 2.82889L12.5855 6.08009C12.6929 6.18481 12.7781 6.30943 12.8363 6.44674C12.8945 6.58405 12.9245 6.73133 12.9245 6.88009C12.9245 7.02885 12.8945 7.17614 12.8363 7.31345C12.7781 7.45076 12.6929 7.57537 12.5855 7.68009L9.1532 11.0593L8.50253 11.6993L9.1532 12.3393L20.195 23.1937L20.8457 23.8337L21.4963 23.1937L24.9254 19.8177C25.0316 19.7117 25.1582 19.6274 25.2978 19.57C25.4375 19.5125 25.5873 19.4829 25.7387 19.4829C25.8901 19.4829 26.0399 19.5125 26.1795 19.57C26.3192 19.6274 26.4458 19.7117 26.552 19.8177L29.8574 23.0785C29.9648 23.1832 30.0501 23.3078 30.1083 23.4451C30.1665 23.5824 30.1964 23.7297 30.1964 23.8785C30.1964 24.0273 30.1665 24.1745 30.1083 24.3118C30.0501 24.4492 29.9648 24.5738 29.8574 24.6785L29.8509 24.6817Z" fill="white"/>
</svg>
