<svg width="39" height="38" viewBox="0 0 39 38" fill="none" xmlns="http://www.w3.org/2000/svg">
<g clip-path="url(#clip0_810_11)">
<path d="M19.3329 24.9375C22.6667 24.9375 25.3693 22.2792 25.3693 19C25.3693 15.7208 22.6667 13.0625 19.3329 13.0625C15.999 13.0625 13.2964 15.7208 13.2964 19C13.2964 22.2792 15.999 24.9375 19.3329 24.9375Z" stroke="white" stroke-linecap="round" stroke-linejoin="round"/>
<path d="M25.973 5.34375H12.6928C8.69214 5.34375 5.44901 8.53372 5.44901 12.4688V25.5312C5.44901 29.4663 8.69214 32.6562 12.6928 32.6562H25.973C29.9736 32.6562 33.2167 29.4663 33.2167 25.5312V12.4688C33.2167 8.53372 29.9736 5.34375 25.973 5.34375Z" stroke="white" stroke-linecap="round" stroke-linejoin="round"/>
<path d="M27.1803 12.7656C28.0137 12.7656 28.6894 12.101 28.6894 11.2812C28.6894 10.4615 28.0137 9.79688 27.1803 9.79688C26.3468 9.79688 25.6711 10.4615 25.6711 11.2812C25.6711 12.101 26.3468 12.7656 27.1803 12.7656Z" fill="white"/>
</g>
<defs>
<clipPath id="clip0_810_11">
<rect width="38.6333" height="38" fill="white" transform="translate(0.0162048)"/>
</clipPath>
</defs>
</svg>
