<svg width="33" height="23" viewBox="0 0 33 23" fill="none" xmlns="http://www.w3.org/2000/svg">
<path d="M30.6331 0H2.16645C1.62718 0 1.10999 0.210714 0.728667 0.585787C0.347343 0.960859 0.133118 1.46957 0.133118 2L0.133118 20.6667C0.133118 21.1971 0.347343 21.7058 0.728667 22.0809C1.10999 22.456 1.62718 22.6667 2.16645 22.6667H30.6331C31.1724 22.6667 31.6896 22.456 32.0709 22.0809C32.4522 21.7058 32.6665 21.1971 32.6665 20.6667V2C32.6665 1.46957 32.4522 0.960859 32.0709 0.585787C31.6896 0.210714 31.1724 0 30.6331 0ZM30.1993 1.33333L16.3998 11.8267L2.60023 1.33333H30.1993ZM1.48867 20.3933V2.17333L11.9332 10.1133L1.48867 20.3933ZM2.44434 21.3333L13.0109 10.94L15.9796 13.2C16.0981 13.2897 16.2434 13.3384 16.393 13.3384C16.5426 13.3384 16.6879 13.2897 16.8065 13.2L19.7887 10.94L30.3552 21.3333H2.44434ZM31.3109 20.3933L20.8663 10.1133L31.3109 2.17333V20.3933Z" fill="white"/>
</svg>
