<svg width="52" height="50" viewBox="0 0 52 50" fill="none" xmlns="http://www.w3.org/2000/svg">
<path fill-rule="evenodd" clip-rule="evenodd" d="M22.7143 39.982C22.7143 39.6073 22.7009 38.6156 22.6932 37.2986C18.3426 38.2515 17.4246 35.1837 17.4246 35.1837C16.7131 33.3612 15.6876 32.876 15.6876 32.876C14.2675 31.897 15.7952 31.9174 15.7952 31.9174C17.3651 32.0287 18.1909 33.5433 18.1909 33.5433C19.586 35.9536 21.8511 35.2583 22.7431 34.8544C22.8852 33.8347 23.2895 33.1394 23.736 32.7453C20.2629 32.3473 16.6113 30.9935 16.6113 24.9489C16.6113 23.2271 17.2211 21.8191 18.2216 20.7161C18.0612 20.3171 17.5235 18.7135 18.3752 16.5414C18.3752 16.5414 19.6888 16.1173 22.6759 18.1586C23.9232 17.809 25.2617 17.6328 26.5925 17.627C27.9205 17.6328 29.258 17.809 30.5082 18.1586C33.4934 16.1173 34.805 16.5414 34.805 16.5414C35.6586 18.7125 35.1219 20.3162 34.9606 20.7161C35.963 21.8191 36.5679 23.2271 36.5679 24.9489C36.5679 31.009 32.9106 32.3425 29.426 32.7327C29.9887 33.2198 30.488 34.1824 30.488 35.6543C30.488 37.7635 30.4679 39.4649 30.4679 39.982C30.4679 40.4042 30.7501 40.8942 31.5442 40.7403C37.7538 38.6505 42.2312 32.7414 42.2312 25.7749C42.2312 17.0624 35.2275 10 26.5896 10C17.9527 10 10.9491 17.0624 10.9491 25.7749C10.9501 32.7434 15.4313 38.6563 21.6466 40.7422C22.4282 40.8865 22.7143 40.3994 22.7143 39.982Z" fill="white"/>
</svg>
