<svg width="33" height="32" viewBox="0 0 33 32" fill="none" xmlns="http://www.w3.org/2000/svg">
<path d="M0.411882 10.4082H7.38416V32H0.411882V10.4082ZM3.94469 0C1.55837 0 -0.000671387 1.61218 -0.000671387 3.72822C-0.000671387 5.80074 1.51275 7.45979 3.85344 7.45979H3.89791C6.32985 7.45979 7.84435 5.80066 7.84435 3.72822C7.79873 1.61218 6.32993 0 3.94469 0ZM24.503 9.90098C20.8021 9.90098 19.144 11.9958 18.2191 13.4649V10.4082H11.2447C11.337 12.4338 11.2447 32 11.2447 32H18.2191V19.9416C18.2191 19.2958 18.2647 18.6523 18.4482 18.1897C18.9532 16.9004 20.1007 15.5653 22.0255 15.5653C24.5508 15.5653 25.5594 17.5463 25.5594 20.4475V31.9999H32.5327V19.6188C32.5327 12.9868 29.0933 9.90098 24.503 9.90098Z" fill="white"/>
</svg>
