<svg width="30" height="30" viewBox="0 0 30 30" fill="none" xmlns="http://www.w3.org/2000/svg">
<path fill-rule="evenodd" clip-rule="evenodd" d="M11.283 29.2325C11.283 28.8671 11.2701 27.9002 11.2628 26.6162C7.09046 27.5452 6.21014 24.5541 6.21014 24.5541C5.52779 22.7772 4.54434 22.3041 4.54434 22.3041C3.18242 21.3496 4.64747 21.3694 4.64747 21.3694C6.15304 21.478 6.94496 22.9547 6.94496 22.9547C8.28294 25.3047 10.4552 24.6268 11.3107 24.2331C11.4469 23.2389 11.8346 22.561 12.2628 22.1767C8.93213 21.7886 5.43018 20.4687 5.43018 14.5752C5.43018 12.8964 6.01492 11.5236 6.97443 10.4482C6.82065 10.0592 6.30498 8.49565 7.12176 6.37787C7.12176 6.37787 8.38147 5.96433 11.2462 7.95464C12.4424 7.61379 13.726 7.44195 15.0023 7.43629C16.2758 7.44195 17.5585 7.61379 18.7575 7.95464C21.6204 5.96433 22.8782 6.37787 22.8782 6.37787C23.6969 8.49471 23.1821 10.0583 23.0274 10.4482C23.9888 11.5236 24.5689 12.8964 24.5689 14.5752C24.5689 20.4838 21.0614 21.7839 17.7197 22.1644C18.2593 22.6393 18.7381 23.5778 18.7381 25.013C18.7381 27.0694 18.7188 28.7283 18.7188 29.2325C18.7188 29.6441 18.9895 30.1219 19.7511 29.9718C25.7061 27.9342 30 22.1729 30 15.3805C30 6.88584 23.2834 0 14.9995 0C6.7166 0 0 6.88584 0 15.3805C0.000920887 22.1748 4.29847 27.9399 10.2591 29.9736C11.0086 30.1143 11.283 29.6394 11.283 29.2325Z" fill="white"/>
</svg>
