<svg width="94" height="49" viewBox="0 0 94 49" fill="none" xmlns="http://www.w3.org/2000/svg">
<path d="M8.6 38.3C8.48 38.86 8.34 39.4 8.18 39.92C8.06 40.44 8 40.88 8 41.24C8 42.16 8.48 42.7 9.44 42.86C10.44 42.98 11.76 43.04 13.4 43.04L12.32 48.14C10.8 48.14 9.38 48.1 8.06 48.02C6.74 47.94 5.58 47.74 4.58 47.42C3.62 47.1 2.86 46.6 2.3 45.92C1.74 45.28 1.46 44.38 1.46 43.22C1.46 42.86 1.48 42.42 1.52 41.9C1.6 41.34 1.68 40.84 1.76 40.4L3.62 31.94C3.7 31.62 3.76 31.28 3.8 30.92C3.84 30.52 3.86 30.18 3.86 29.9C3.86 28.98 3.56 28.22 2.96 27.62C2.36 26.98 1.66 26.6 0.86 26.48L1.82 21.98C3.02 21.7 4.06 21.22 4.94 20.54C5.82 19.86 6.44 18.68 6.8 17L8.6 8.48C9 6.64 9.6 5.22 10.4 4.22C11.24 3.18 12.24 2.42 13.4 1.94C14.56 1.42 15.86 1.1 17.3 0.98C18.78 0.859999 20.36 0.799998 22.04 0.799998L20.96 5.9C20.04 5.9 19.22 5.92 18.5 5.96C17.82 6 17.24 6.12 16.76 6.32C16.28 6.48 15.9 6.76 15.62 7.16C15.34 7.56 15.12 8.1 14.96 8.78L13.04 17.54C12.8 18.66 12.54 19.6 12.26 20.36C12.02 21.12 11.74 21.76 11.42 22.28C11.1 22.8 10.72 23.24 10.28 23.6C9.88 23.96 9.38 24.28 8.78 24.56C9.18 24.88 9.56 25.34 9.92 25.94C10.28 26.54 10.46 27.36 10.46 28.4C10.46 28.88 10.42 29.4 10.34 29.96C10.26 30.48 10.16 31 10.04 31.52L8.6 38.3ZM50.7111 40.76C49.7111 41.24 48.6711 41.72 47.5911 42.2C46.5511 42.64 45.4311 43.04 44.2311 43.4C43.0311 43.72 41.7111 43.98 40.2711 44.18C38.8711 44.38 37.3311 44.48 35.6511 44.48C30.2911 44.48 26.1511 43.28 23.2311 40.88C20.3511 38.48 18.9111 34.48 18.9111 28.88C18.9111 25.64 19.4111 22.6 20.4111 19.76C21.4111 16.88 22.8911 14.38 24.8511 12.26C26.8111 10.1 29.2311 8.4 32.1111 7.16C34.9911 5.92 38.2911 5.3 42.0111 5.3C43.7711 5.3 45.3711 5.42 46.8111 5.66C48.2911 5.9 49.6111 6.22 50.7711 6.62C51.9711 6.98 53.0311 7.38 53.9511 7.82C54.9111 8.26 55.7711 8.68 56.5311 9.08L54.3711 20.24H43.5711C43.6111 19.84 43.6511 19.32 43.6911 18.68C43.7711 18.04 43.8311 17.4 43.8711 16.76C43.9111 16.08 43.9511 15.42 43.9911 14.78C44.0311 14.14 44.0511 13.6 44.0511 13.16C44.0511 12.84 44.0311 12.48 43.9911 12.08C43.9511 11.64 43.8511 11.22 43.6911 10.82C43.5311 10.42 43.2711 10.1 42.9111 9.86C42.5911 9.58 42.1511 9.44 41.5911 9.44C40.5511 9.44 39.5911 9.88 38.7111 10.76C37.8711 11.6 37.1111 12.74 36.4311 14.18C35.7511 15.58 35.1511 17.18 34.6311 18.98C34.1111 20.78 33.6711 22.62 33.3111 24.5C32.9911 26.34 32.7311 28.16 32.5311 29.96C32.3711 31.76 32.2911 33.34 32.2911 34.7C32.2911 35.1 32.3111 35.6 32.3511 36.2C32.3911 36.8 32.5111 37.38 32.7111 37.94C32.9111 38.5 33.2111 38.98 33.6111 39.38C34.0511 39.78 34.6311 39.98 35.3511 39.98C36.5911 39.98 37.7911 39.22 38.9511 37.7C40.1111 36.14 41.1311 33.38 42.0111 29.42H53.1111L50.7111 40.76ZM68.1514 44H55.1914L63.2914 5.9H76.3114L68.1514 44ZM85.7417 10.46C85.8617 9.86 85.9817 9.32 86.1017 8.84C86.2217 8.36 86.2817 7.96 86.2817 7.64C86.2817 6.76 85.7817 6.26 84.7817 6.14C83.7817 5.98 82.4817 5.9 80.8817 5.9L82.0217 0.799998C83.5417 0.799998 84.9617 0.839998 86.2817 0.919997C87.6017 0.999998 88.7417 1.2 89.7017 1.52C90.6617 1.84 91.4217 2.34 91.9817 3.02C92.5417 3.66 92.8217 4.56 92.8217 5.72C92.8217 6.08 92.7817 6.54 92.7017 7.1C92.6617 7.62 92.6017 8.1 92.5217 8.54L90.7217 17C90.6417 17.32 90.5617 17.68 90.4817 18.08C90.4417 18.44 90.4217 18.76 90.4217 19.04C90.4217 19.96 90.7217 20.74 91.3217 21.38C91.9217 21.98 92.6217 22.34 93.4217 22.46L92.4617 27.02C91.2617 27.26 90.2217 27.72 89.3417 28.4C88.4617 29.08 87.8417 30.26 87.4817 31.94L85.7417 40.46C85.3817 42.3 84.7817 43.72 83.9417 44.72C83.1017 45.76 82.0817 46.52 80.8817 47C79.7217 47.52 78.4017 47.84 76.9217 47.96C75.4417 48.08 73.8817 48.14 72.2417 48.14L73.3217 43.04C74.2417 43.04 75.0417 43.02 75.7217 42.98C76.4417 42.94 77.0417 42.84 77.5217 42.68C78.0017 42.48 78.3817 42.18 78.6617 41.78C78.9817 41.38 79.2217 40.84 79.3817 40.16L81.2417 31.4C81.4817 30.32 81.7217 29.4 81.9617 28.64C82.2417 27.88 82.5417 27.24 82.8617 26.72C83.2217 26.16 83.6017 25.7 84.0017 25.34C84.4417 24.98 84.9617 24.66 85.5617 24.38C85.1217 24.06 84.7217 23.6 84.3617 23C84.0017 22.4 83.8217 21.58 83.8217 20.54C83.8217 20.02 83.8617 19.5 83.9417 18.98C84.0617 18.46 84.1817 17.94 84.3017 17.42L85.7417 10.46Z" fill="#FFBB1B"/>
</svg>
