<svg width="50" height="26" viewBox="0 0 50 26" fill="none" xmlns="http://www.w3.org/2000/svg">
<g clip-path="url(#clip0_697_149)">
<path d="M0 14.9263H3.80528L5.91982 4.57688H2.11404L0 14.9263ZM2.32371 3.34249H6.14492L6.77291 0.245994H2.95319L2.32371 3.34249ZM5.28536 17.8386H9.09114L11.4163 6.65705H14.2704L14.6912 4.57688H11.8919L11.998 4.1089C12.1564 3.22685 12.4736 2.2365 13.9004 2.2365C14.747 2.2365 15.5393 2.28844 16.3317 2.65253L16.755 0.468468C15.872 0.161893 14.9428 0.00353109 14.0065 0C10.9407 0 8.82719 1.76852 8.03386 4.57688H6.71265L6.28984 6.65705H7.61106L5.28536 17.8386Z" fill="#FF7A00"/>
<path d="M17.3361 15.1346C21.8286 15.1346 24.9472 11.1295 24.9472 7.8532C24.9472 5.40893 22.6742 4.3686 20.4546 4.3686C15.5378 4.3686 12.8436 8.68772 12.8436 11.65C12.8436 14.0942 15.1693 15.1346 17.3361 15.1346ZM29.3879 15.1346C33.8804 15.1346 36.9989 11.1295 36.9989 7.8532C36.9989 5.40893 34.6732 4.3686 32.4531 4.3686C27.5378 4.3686 24.8426 8.68527 24.8426 11.65C24.8426 14.0942 27.2211 15.1346 29.3879 15.1346ZM43.1827 14.9263H46.9352L49.9999 0.210205H46.1947L45.2958 4.57882L43.7101 4.42299C40.0104 4.42299 36.6279 9.10326 36.6279 12.432C36.6279 13.784 37.5243 15.1365 39.0592 15.1365C41.226 15.1365 42.7589 14.0962 43.3919 13.0558H43.603L43.1827 14.9263ZM31.4481 22.6756C28.4944 25.0838 24.7006 26.2596 20.8774 25.952C15.856 25.6398 12.2619 21.8431 11.6279 17.8385H11.8391C13.0019 20.3377 15.8032 22.6756 19.239 23.0392C22.725 23.4553 26.9028 21.8955 29.1752 19.7629L26.6384 17.8385H34.3022L32.609 25.8481L31.4989 22.7276L31.4481 22.6756Z" fill="#FF7A00"/>
</g>
<defs>
<clipPath id="clip0_697_149">
<rect width="50" height="26" fill="white"/>
</clipPath>
</defs>
</svg>
