<svg width="325" height="278" viewBox="0 0 325 278" fill="none" xmlns="http://www.w3.org/2000/svg">
<rect opacity="0.6" x="225" y="278" width="216" height="18" rx="5" transform="rotate(-180 225 278)" fill="#00A3FF"/>
<rect opacity="0.6" x="227" y="167" width="120" height="18" rx="5" transform="rotate(-180 227 167)" fill="#A450FD"/>
<rect opacity="0.6" x="291" y="204" width="186" height="18" rx="5" transform="rotate(-180 291 204)" fill="#00A3FF"/>
<rect opacity="0.6" x="291" y="93" width="186" height="18" rx="5" transform="rotate(-180 291 93)" fill="#00A3FF"/>
<rect opacity="0.6" x="296" y="56" width="186" height="18" rx="5" transform="rotate(-180 296 56)" fill="#A450FD"/>
<rect opacity="0.6" x="227" y="241" width="150" height="18" rx="5" transform="rotate(-180 227 241)" fill="#00A3FF"/>
<rect opacity="0.6" x="198" y="19" width="100" height="18" rx="5" transform="rotate(-180 198 19)" fill="#00A3FF"/>
<rect opacity="0.6" x="227" y="130" width="150" height="18" rx="5" transform="rotate(-180 227 130)" fill="#00A3FF"/>
<rect x="284" y="278" width="50" height="18" rx="5" transform="rotate(-180 284 278)" fill="#FFBB1B"/>
<rect opacity="0.6" x="98" y="167" width="50" height="18" rx="5" transform="rotate(-180 98 167)" fill="#00A3FF"/>
<rect x="68" y="241" width="68" height="18" rx="5" transform="rotate(-180 68 241)" fill="#FFBB1B"/>
<rect x="60" y="19" width="43" height="18" rx="5" transform="rotate(-180 60 19)" fill="#FFBB1B"/>
<rect x="68" y="130" width="68" height="18" rx="5" transform="rotate(-180 68 130)" fill="#FFBB1B"/>
<rect x="96" y="204" width="50" height="18" rx="5" transform="rotate(-180 96 204)" fill="#FFBB1B"/>
<rect x="96" y="93" width="50" height="18" rx="5" transform="rotate(-180 96 93)" fill="#FFBB1B"/>
<rect opacity="0.6" x="101" y="56" width="50" height="18" rx="5" transform="rotate(-180 101 56)" fill="#00A3FF"/>
<circle opacity="0.6" cx="246" cy="232" r="10" transform="rotate(-180 246 232)" fill="#A450FD"/>
<circle opacity="0.6" cx="275" cy="232" r="10" transform="rotate(-180 275 232)" fill="#A450FD"/>
<circle opacity="0.6" cx="246" cy="10" r="10" transform="rotate(-180 246 10)" fill="#A450FD"/>
<circle opacity="0.6" cx="217" cy="10" r="10" transform="rotate(-180 217 10)" fill="#A450FD"/>
<circle opacity="0.6" cx="79" cy="10" r="10" transform="rotate(-180 79 10)" fill="#A450FD"/>
<circle opacity="0.6" cx="246" cy="121" r="10" transform="rotate(-180 246 121)" fill="#A450FD"/>
<circle opacity="0.6" cx="27" cy="195" r="10" transform="rotate(-180 27 195)" fill="#A450FD"/>
<circle cx="246" cy="158" r="10" transform="rotate(-180 246 158)" fill="#FFBB1B"/>
<rect opacity="0.6" x="325" y="278" width="32" height="18" rx="5" transform="rotate(-180 325 278)" fill="#00A3FF"/>
<circle cx="275" cy="158" r="10" transform="rotate(-180 275 158)" fill="#FFBB1B"/>
<rect opacity="0.6" x="315" y="130" width="50" height="18" rx="5" transform="rotate(-180 315 130)" fill="#00A3FF"/>
<rect x="308" y="19" width="43" height="18" rx="5" transform="rotate(-180 308 19)" fill="#FFBB1B"/>
</svg>
