<svg width="70" height="70" viewBox="0 0 70 70" fill="none" xmlns="http://www.w3.org/2000/svg">
<g clip-path="url(#clip0_715_683)">
<path d="M4.79065 0.546875L10.2895 62.2798L34.9634 69.1595L59.7062 62.2546L65.2094 0.546875H4.79065ZM53.7857 14.6902L51.9553 35.2554L51.9608 35.3664L51.9532 35.6218V35.6196L50.6527 49.9991L50.5094 51.2766L35 55.5663L34.988 55.5773L19.5054 51.2635L18.4571 39.375H26.0493L26.588 45.4202L35.0022 47.7006L35 47.705V47.7039L43.4454 45.3912L44.3379 35.5469H26.6832L26.5317 33.8827L26.1866 29.9841L26.0056 27.8906H45.0089L45.7002 20.2344H16.7563L16.6048 18.5713L16.2603 14.6716L16.0787 12.5781H53.9667L53.7857 14.6902Z" fill="#00A3FF"/>
</g>
<defs>
<clipPath id="clip0_715_683">
<rect width="70" height="70" fill="white"/>
</clipPath>
</defs>
</svg>
