<svg width="70" height="70" viewBox="0 0 70 70" fill="none" xmlns="http://www.w3.org/2000/svg">
<g clip-path="url(#clip0_715_698)">
<path d="M34.7004 0.0197754C16.9745 0.0197754 18.0813 7.73762 18.0813 7.73762L18.101 15.7335H35.0164V18.1341H11.3824C11.3824 18.1341 0.0396729 16.8426 0.0396729 34.7996C0.0396729 52.7572 9.93991 52.1204 9.93991 52.1204H15.8483V43.7873C15.8483 43.7873 15.5298 33.8473 25.5905 33.8473H42.3676C42.3676 33.8473 51.7935 34.0002 51.7935 24.701V9.32511C51.7935 9.32511 53.2251 0.0197754 34.7004 0.0197754ZM25.3732 5.39687C25.7729 5.39651 26.1688 5.47529 26.5381 5.62871C26.9075 5.78212 27.2431 6.00716 27.5258 6.29094C27.8084 6.57473 28.0325 6.91168 28.1853 7.28253C28.3382 7.65338 28.4166 8.05084 28.4163 8.45217C28.4166 8.8535 28.3382 9.25096 28.1853 9.62181C28.0325 9.99265 27.8084 10.3296 27.5258 10.6134C27.2431 10.8972 26.9075 11.1222 26.5381 11.2756C26.1688 11.429 25.7729 11.5078 25.3732 11.5075C24.9735 11.5078 24.5776 11.429 24.2082 11.2756C23.8389 11.1222 23.5033 10.8972 23.2206 10.6134C22.938 10.3296 22.7138 9.99265 22.561 9.62181C22.4082 9.25096 22.3298 8.8535 22.3301 8.45217C22.3298 8.05084 22.4082 7.65338 22.561 7.28253C22.7138 6.91168 22.938 6.57473 23.2206 6.29094C23.5033 6.00716 23.8389 5.78212 24.2082 5.62871C24.5776 5.47529 24.9735 5.39651 25.3732 5.39687Z" fill="url(#paint0_linear_715_698)"/>
<path d="M35.2037 69.7601C52.9295 69.7601 51.8227 62.0423 51.8227 62.0423L51.803 54.0466H34.8873V51.646H58.5213C58.5213 51.646 69.8641 52.9376 69.8641 34.98C69.8641 17.0227 59.9638 17.6595 59.9638 17.6595H54.0554V25.9923C54.0554 25.9923 54.3739 35.9323 44.3132 35.9323H27.5361C27.5361 35.9323 18.1102 35.7794 18.1102 45.0789V60.4551C18.1102 60.4551 16.6789 69.7601 35.2034 69.7601H35.2037ZM44.5308 64.3836C44.1311 64.3839 43.7352 64.3052 43.3659 64.1517C42.9965 63.9983 42.6609 63.7733 42.3783 63.4895C42.0956 63.2057 41.8715 62.8688 41.7187 62.4979C41.5659 62.1271 41.4874 61.7296 41.4878 61.3283C41.4874 60.9269 41.5658 60.5294 41.7186 60.1586C41.8714 59.7877 42.0955 59.4507 42.3782 59.1669C42.6608 58.8831 42.9964 58.658 43.3658 58.5046C43.7352 58.3511 44.1311 58.2724 44.5308 58.2727C44.9306 58.2724 45.3264 58.3511 45.6958 58.5045C46.0652 58.658 46.4008 58.883 46.6834 59.1668C46.9661 59.4506 47.1902 59.7875 47.343 60.1584C47.4958 60.5292 47.5743 60.9267 47.5739 61.328C47.5743 61.7293 47.4958 62.1268 47.343 62.4976C47.1902 62.8685 46.9661 63.2054 46.6834 63.4892C46.4008 63.773 46.0652 63.998 45.6958 64.1515C45.3264 64.3049 44.9306 64.3839 44.5308 64.3836Z" fill="url(#paint1_linear_715_698)"/>
</g>
<defs>
<linearGradient id="paint0_linear_715_698" x1="671.05" y1="627.292" x2="4145.07" y2="4052.89" gradientUnits="userSpaceOnUse">
<stop stop-color="#00A3FF"/>
<stop offset="1" stop-color="#00A3FF"/>
</linearGradient>
<linearGradient id="paint1_linear_715_698" x1="1008.52" y1="1089.89" x2="4738.53" y2="4601.88" gradientUnits="userSpaceOnUse">
<stop stop-color="#FFBB1B"/>
<stop offset="1" stop-color="#FFBB1B"/>
</linearGradient>
<clipPath id="clip0_715_698">
<rect width="70" height="70" fill="white"/>
</clipPath>
</defs>
</svg>
